<svg width="48" height="48" viewBox="0 0 48 48" fill="none" xmlns="http://www.w3.org/2000/svg">
  <rect width="48" height="48" rx="10" fill="#131313" />
  <path
    d="M25.1408 17.0694C25.219 17.0566 25.2979 17.0466 25.3773 17.0393C25.8319 17.0653 26.2818 17.1038 26.7263 17.154C30.5847 18.0912 35.1059 23.9242 34.8085 28.0562C35.1412 23.433 34.2676 20.1822 32.2037 18.4182C38.02 20.4842 42 24.3921 42 27.303C42 31.4452 33.9411 32 24 32C14.0589 32 6 31.4452 6 27.303C6 24.9922 8.50821 22.053 12.4522 19.9058C16.4694 20.5021 21.2577 25.0092 21.5349 29.1302C21.0758 22.3056 18.6396 18.8301 14.3122 19.0013C15.6 18.445 16.9996 17.9767 18.4832 17.6333C23.1835 18.5239 28.7172 24.4165 28.7679 29.3334C28.6939 22.1599 26.5648 17.9785 22.44 17.0505C22.9541 17.0172 23.4744 17 24 17C24.4519 17 24.9 17.0127 25.3435 17.0374C25.2763 17.0476 25.2088 17.0583 25.1408 17.0694Z"
    fill="url(#paint0_linear_251_1583)"
  />
  <defs>
    <linearGradient
      id="paint0_linear_251_1583"
      x1="19.4907"
      y1="19.9248"
      x2="26.3437"
      y2="37.4267"
      gradientUnits="userSpaceOnUse"
    >
      <stop stop-color="#FFB82F" />
      <stop offset="1" stop-color="#B0B8FF" />
    </linearGradient>
  </defs>
</svg>
